<?xml version="1.0" encoding="utf-8"?>
<!-- Generator: Adobe Illustrator 18.1.0, SVG Export Plug-In . SVG Version: 6.00 Build 0)  -->
<svg version="1.1" id="Layer_1" xmlns="http://www.w3.org/2000/svg" xmlns:xlink="http://www.w3.org/1999/xlink" x="0px" y="0px"
	 viewBox="0 0 24 24" enable-background="new 0 0 24 24" xml:space="preserve">
<path fill="#FFFFFF" d="M19.8,23H4.2C2.4,23,1,21.6,1,19.8V4.2C1,2.4,2.4,1,4.2,1h15.5C21.6,1,23,2.4,23,4.2v15.5
	C23,21.6,21.6,23,19.8,23z"/>
<path fill="none" stroke="#434347" stroke-width="2" stroke-miterlimit="10" d="M12,4.7"/>
<path fill="none" stroke="#434347" stroke-width="1.5" stroke-miterlimit="10" d="M4.4,23h15.2c1.9,0,3.4-1.5,3.4-3.4V4.4
	C23,2.5,21.5,1,19.6,1H4.4C2.5,1,1,2.5,1,4.4v15.2C1,21.5,2.5,23,4.4,23z"/>
<path fill="none" stroke="#434347" stroke-width="2" stroke-miterlimit="10" d="M12,2.7"/>
<g>
	<path fill="none" stroke="#434347" stroke-width="1.5" stroke-linejoin="round" stroke-miterlimit="22" d="M18.1,10.4
		c0-2.3-1.6-4.3-3.9-5c-0.4-0.1-0.7,3.1-0.7,3.1l-0.4-3.6c0-0.4-0.3-0.7-0.6-0.7h-0.9c-0.3,0-0.6,0.3-0.6,0.7l-0.2,3.6
		c0,0-0.6-3.2-0.9-3.1c-2.3,0.7-3.9,2.7-3.9,5c0,0.6-1.3-0.2-1.4,1.9c0,0.2,0.2,0.4,0.4,0.4h14.3c0.2,0,0.4-0.2,0.4-0.4
		C19.4,10.3,18.1,11,18.1,10.4z"/>
	<g>
		<g>
			<path fill="none" stroke="#434347" stroke-width="1.5" stroke-miterlimit="10" d="M12,19.2c0.9,0,4.4,0,4.9-5.8H7.1
				C7.6,19.2,10.9,19.2,12,19.2"/>
		</g>
	</g>
</g>
</svg>
