<?xml version="1.0" encoding="utf-8"?>
<!-- Generator: Adobe Illustrator 18.1.0, SVG Export Plug-In . SVG Version: 6.00 Build 0)  -->
<svg version="1.1" id="Layer_1" xmlns="http://www.w3.org/2000/svg" xmlns:xlink="http://www.w3.org/1999/xlink" x="0px" y="0px"
	 viewBox="0 0 24 24" enable-background="new 0 0 24 24" xml:space="preserve">
<path fill="#FFFFFF" d="M19.8,23H4.2C2.4,23,1,21.6,1,19.8V4.2C1,2.4,2.4,1,4.2,1h15.5C21.6,1,23,2.4,23,4.2v15.5
	C23,21.6,21.6,23,19.8,23z"/>
<path fill="none" stroke="#434347" stroke-width="1.75" stroke-miterlimit="10" d="M4.7,1.5"/>
<path fill="none" stroke="#434347" stroke-width="2" stroke-miterlimit="10" d="M1.5,4.7"/>
<path fill="none" stroke="#434347" stroke-width="1.5" stroke-miterlimit="10" d="M4.4,23h15.2c1.9,0,3.4-1.5,3.4-3.4V4.4
	C23,2.5,21.5,1,19.6,1H4.4C2.5,1,1,2.5,1,4.4v15.2C1,21.5,2.5,23,4.4,23z"/>
<g>
	<g>
		<path fill="#444546" d="M6.7,17.4c0.7,0.7,1.5,1.2,2.4,1.5c0.9,0.4,2,0.6,3.1,0.6c1.3,0,2.4-0.2,3.5-0.6c1-0.4,0.1-2.1-0.6-1.8
			c-0.8,0.3-1.7,0.5-2.8,0.5c-0.8,0-1.6-0.1-2.3-0.4c-0.7-0.3-1.3-0.6-1.8-1.1c-0.5-0.5-0.9-1.1-1.1-1.7c-0.3-0.7-0.4-1.5-0.4-2.3
			c0-0.8,0.1-1.6,0.4-2.2c0.3-0.7,0.6-1.3,1.1-1.8C8.8,7.6,9.4,7.2,10,6.9c0.7-0.3,1.4-0.4,2.2-0.4c0.8,0,1.5,0.1,2.1,0.3
			C15,7,15.5,7.3,16,7.7c0.4,0.4,0.8,0.9,1.1,1.5c0.3,0.6,0.4,1.3,0.4,2c0,0.4,0,0.9-0.1,1.3c-0.1,0.4-0.2,0.7-0.4,1
			c-0.2,0.3-0.3,0.5-0.6,0.6c-0.3,0.2-0.6,0.3-0.9,0.2c-0.4-0.1-0.3-0.6-0.3-0.9c0-0.4,0.1-0.8,0.2-1.2c0.1-0.7,0.3-1.3,0.4-1.9
			c0.1-0.4,0.2-0.7,0.2-1.1c0.1-0.4-0.2-0.9-0.7-0.9h-0.5c-0.3,0-0.6,0.2-0.7,0.5C14,8.9,14,9,14,9c-0.3-0.8-1.2-1.1-2-1
			c-1,0-1.9,0.5-2.6,1.3C9.3,9.3,9.2,9.4,9.1,9.4c-0.4,0.4-0.6,0.9-0.8,1.4C8.1,11.4,8,12,8,12.6c0,0.5,0.1,1,0.2,1.4
			c0.1,0.4,0.4,0.8,0.6,1.1c0.3,0.3,0.6,0.6,1,0.7c0.4,0.2,0.8,0.3,1.3,0.3c0.4,0,0.7-0.1,1-0.2c0.3-0.1,0.6-0.2,0.8-0.4
			c0.2-0.1,0.4-0.3,0.5-0.4c0.1,0.2,0.2,0.3,0.3,0.4c0.3,0.4,0.9,0.5,1.5,0.5c0.5,0,1.1-0.1,1.6-0.3c0.5-0.2,0.9-0.6,1.3-1
			c0.4-0.4,0.7-1,0.9-1.6c0.2-0.6,0.3-1.4,0.3-2.2c0-1.1-0.2-2.1-0.6-2.9s-0.9-1.5-1.6-2c-0.7-0.5-1.4-0.9-2.3-1.2
			c-0.8-0.3-1.7-0.4-2.6-0.4c-1.1,0-2.1,0.2-3,0.6C8.3,5.5,7.5,6,6.8,6.7C6.1,7.3,5.6,8.1,5.2,9C4.8,9.9,4.6,11,4.6,12
			c0,1.1,0.2,2.1,0.6,3C5.5,15.9,6,16.7,6.7,17.4z M13.2,12.3c-0.1,0.3-0.2,0.6-0.4,0.9c-0.2,0.3-0.4,0.5-0.6,0.7
			c-0.2,0.2-0.5,0.3-0.9,0.3c-0.2,0-0.4,0-0.5-0.1c-0.1-0.1-0.3-0.2-0.4-0.4c-0.1-0.2-0.2-0.4-0.2-0.5c0-0.2-0.1-0.4-0.1-0.5
			c0-0.3,0-0.7,0.1-1c0.1-0.3,0.2-0.7,0.4-0.9c0.2-0.3,0.4-0.5,0.6-0.7c0.2-0.2,0.5-0.2,0.8-0.2c0.2,0,0.4,0,0.6,0.1
			c0.1,0.1,0.3,0.2,0.4,0.3c0.1,0.1,0.2,0.3,0.2,0.5c0,0.2,0.1,0.4,0.1,0.6C13.4,11.7,13.3,12,13.2,12.3z"/>
	</g>
</g>
</svg>
