<?xml version="1.0" encoding="utf-8"?>
<!-- Generator: Adobe Illustrator 18.1.0, SVG Export Plug-In . SVG Version: 6.00 Build 0)  -->
<svg version="1.1" id="Capa_1" xmlns="http://www.w3.org/2000/svg" xmlns:xlink="http://www.w3.org/1999/xlink" x="0px" y="0px"
	 viewBox="159 -159.5 618.5 618.5" enable-background="new 159 -159.5 618.5 618.5" xml:space="preserve">
<g>
	<g>
		<path fill="#0088B8" d="M761.3-146.9c-8.3-8.2-18.7-12.6-30.5-12.6H332.2c-24.4,0-44.2,19.8-44.2,44.2v82.9c0,0,0,0.1,0.1,0.1
			h40.5c0,0,0.1,0,0.1-0.1v-83.9c0-2,1.6-3.7,3.7-3.7h398.5c2,0,3.7,1.6,3.7,3.7v286.8c0,2-1.6,3.7-3.7,3.7h-54.1c0,0-0.1,0-0.1,0.1
			V214c0,0,0,0.1,0.1,0.1h54.2c11.9,0,22.2-4.4,30.5-12.6c8.5-8.4,12.9-18.7,12.9-30.9v-287C774.2-128.6,769.8-138.5,761.3-146.9z"
			/>
		<path fill="#0088B8" d="M604.3,9.7H205.7c-12.2,0-22.6,4.3-30.9,12.9c-8.3,8.6-12.6,19-12.6,31.2v286.6c0,11.9,4.2,22.3,12.6,30.9
			c8.2,8.4,18.7,12.6,30.9,12.6H386c0,0,0,0,0,0l134.9,75c0,0,0.1,0,0.1-0.1V384c0,0,0-0.1,0.1-0.1h83.3c12.2,0,22.7-4.2,30.9-12.6
			c8.4-8.5,12.6-19,12.6-30.9V53.9c0-12.2-4.3-22.6-12.6-31.2C627,14,616.6,9.7,604.3,9.7z M607.9,340.5c0,2.5-1.1,3.6-3.6,3.6H521
			h-39.4c0,0-0.1,0-0.1,0.1v39.8v7.4c0,0,0,0.1-0.1,0.1l-75.7-42.7l-9-4.7c0,0,0,0,0,0H386H205.8c-2,0-3.7-1.6-3.7-3.7V53.9
			c0-3.2,1.1-4.7,3.6-4.7h398.7c2.5,0,3.6,1.4,3.6,4.7L607.9,340.5L607.9,340.5z"/>
		<path fill="#0088B8" d="M527.9,221.2H385.1c-11.5,0-21.1,9.4-20.7,20.9c0.4,10.8,9.2,19,20.1,19h142.9c10.8,0,19.9-8.5,20.2-19.3
			C547.8,230.5,539.1,221.2,527.9,221.2z"/>
		<path fill="#0088B8" d="M527.9,133.2H282.6c-10.9,0-20.1,8.7-20.2,19.6c-0.1,11.2,8.6,19.9,19.8,19.9h245.2
			c10.9,0,20.1-8.7,20.2-19.6C547.7,142,539,133.2,527.9,133.2z"/>
	</g>
</g>
</svg>
