<?xml version="1.0" encoding="utf-8"?>
<!-- Generator: Adobe Illustrator 18.1.0, SVG Export Plug-In . SVG Version: 6.00 Build 0)  -->
<svg version="1.1" id="Layer_1" xmlns="http://www.w3.org/2000/svg" xmlns:xlink="http://www.w3.org/1999/xlink" x="0px" y="0px"
	 viewBox="0 0 60 60" enable-background="new 0 0 60 60" xml:space="preserve">
<path fill-rule="evenodd" clip-rule="evenodd" fill="#1390BE" d="M30,0.6l12.8,7.4l12.8,7.4l-6.1,3.5l-9.7-5.6L30,7.6l-9.7,5.6
	l-9.7,5.6V30v11.2l9.7,5.6l9.7,5.6l9.7-5.6l9.7-5.6l6.1,3.5l-12.8,7.4L30,59.4l-12.7-7.4L4.5,44.7V30V15.3l12.8-7.4L30,0.6L30,0.6z
	 M35.1,27l5.7-3.3l6-3.5l-8.4-4.9L30,10.6l-8.4,4.9l-8.4,4.9V30v9.7l8.4,4.9l8.4,4.9l8.4-4.9l8.4-4.9l-6-3.5l-5.4,3.1l-1.8,1V27.9
	L35.1,27L35.1,27z M40.8,23.8l-5.4-3.1L30,17.5l-5.4,3.1l-5.4,3.1l5.1-3l5.7,3.3l5.7-3.3L40.8,23.8L40.8,23.8z M19.2,23.8V30v6.2
	l5.4,3.1l1.8,1V27.9L24.9,27L19.2,23.8z"/>
</svg>
