<?xml version="1.0" encoding="utf-8"?>
<!-- Generator: Adobe Illustrator 18.1.0, SVG Export Plug-In . SVG Version: 6.00 Build 0)  -->
<svg version="1.1" id="Layer_1" xmlns="http://www.w3.org/2000/svg" xmlns:xlink="http://www.w3.org/1999/xlink" x="0px" y="0px"
	 viewBox="0 0 2048 2048" enable-background="new 0 0 2048 2048" xml:space="preserve">
<path fill-rule="evenodd" clip-rule="evenodd" fill="#1390BE" d="M1024,175.3l367.5,212.2L1759,599.7l-175.2,101.2l-279.9-161.6
	L1024,377.6L744.1,539.2L464.2,700.8V1024v323.2l279.9,161.6l279.9,161.6l279.9-161.6l279.9-161.6l175.2,101.2l-367.5,212.2
	L1024,1872.7l-367.5-212.2L289,1448.4V1024V599.7l367.5-212.2L1024,175.3L1024,175.3z M1172.2,938.4l163.4-94.3l173.1-99.9
	l-242.3-139.9L1024,464.3L781.7,604.2L539.3,744.2V1024v279.8l242.3,139.9l242.3,139.9l242.3-139.9l242.3-139.9l-173.1-99.9
	l-155.8,90l-50.5,29.2V963.2L1172.2,938.4L1172.2,938.4z M1335.6,844.1l-155.8-90l-155.8-90l-155.8,90l-155.8,90l148.2-85.6
	l163.4,94.3l163.4-94.3L1335.6,844.1L1335.6,844.1z M712.4,844.1V1024v179.9l155.8,90l50.5,29.2V963.2l-42.9-24.8L712.4,844.1z"/>
</svg>
