<?xml version="1.0" encoding="utf-8"?>
<!-- Generator: Adobe Illustrator 18.1.0, SVG Export Plug-In . SVG Version: 6.00 Build 0)  -->
<svg version="1.1" id="Layer_1" xmlns="http://www.w3.org/2000/svg" xmlns:xlink="http://www.w3.org/1999/xlink" x="0px" y="0px"
	 viewBox="0 0 190.3 134.7" enable-background="new 0 0 190.3 134.7" xml:space="preserve">
<path fill-rule="evenodd" clip-rule="evenodd" fill="#1190BD" d="M95.1,0l21.6,12.4l21.6,12.4L128,30.8l-16.4-9.5l-16.4-9.5
	l-16.4,9.5l-16.4,9.5v19v19l16.4,9.5l16.4,9.5l16.4-9.5l16.4-9.5l10.3,5.9l-21.6,12.4L95.1,99.6L73.6,87.1L52,74.7V49.8V24.9
	l21.6-12.4L95.1,0z M103.8,44.8l9.6-5.5l10.2-5.9l-14.2-8.2L95.1,17l-14.2,8.2l-14.2,8.2v16.4v16.4l14.2,8.2l14.2,8.2l14.2-8.2
	l14.2-8.2l-10.2-5.9l-9.1,5.3l-3,1.7V46.2L103.8,44.8z M113.4,39.2l-8.7-5l-9.6-5.5l-9.6,5.5l-8.7,5l8.7-5l9.6,5.5l9.6-5.5
	L113.4,39.2z M76.8,39.2v10.6v10.6l9.1,5.3l3,1.7V46.2l-2.5-1.5L76.8,39.2z"/>
<g>
	<path fill="#424242" d="M5.3,120.7c-0.6,1.3-0.9,2.7-0.9,4.4c0,0.3,0,0.6,0,0.9c0,0.3,0,0.6,0,0.9c0.1,0.6,0.2,1.2,0.3,1.8
		c0.2,0.6,0.5,1.1,0.9,1.6c0.4,0.5,0.9,0.8,1.5,0.9c0.6,0.1,1.1,0.2,1.7,0.2c0,0,0.1,0,0.1,0c0,0,0.1,0,0.1,0l6.6,0v3.3H8.9
		c-1.1,0-2.1-0.1-3.1-0.3c-1-0.2-2-0.7-2.8-1.4c-1.1-0.9-1.8-1.9-2.2-3.2C0.3,128.6,0,127.3,0,126c0-0.3,0-0.6,0-0.8
		c0-0.3,0-0.5,0-0.8c0.2-3,1-5.3,2.5-6.7c1.5-1.4,3.6-2.1,6.5-2.1l6.7,0v3.3H9.1C7.2,118.8,5.9,119.5,5.3,120.7z"/>
	<path fill="#424242" d="M18,120.9c0.5-1.4,1.1-2.5,2-3.4c0.9-0.9,2.1-1.5,3.5-1.9c0.5-0.1,1.1-0.2,1.7-0.3c0.6-0.1,1.1-0.1,1.7-0.1
		c0.6,0,1.2,0,1.8,0.1c0.6,0.1,1.2,0.2,1.8,0.3c1.4,0.4,2.6,1,3.5,1.9c0.9,0.9,1.6,2,2,3.4c0.2,0.6,0.3,1.3,0.4,2
		c0.1,0.7,0.1,1.4,0.1,2.1c0,0.8,0,1.5-0.1,2.2c-0.1,0.7-0.2,1.4-0.4,2.1c-0.4,1.4-1.1,2.6-2,3.5c-0.9,0.9-2.1,1.5-3.6,1.8
		c-0.6,0.1-1.2,0.2-1.8,0.3c-0.6,0.1-1.2,0.1-1.8,0.1c-0.6,0-1.1,0-1.7-0.1c-0.6-0.1-1.1-0.2-1.6-0.3c-1.4-0.3-2.6-0.9-3.6-1.8
		c-0.9-0.9-1.6-2-2-3.5c-0.2-0.6-0.3-1.3-0.4-2c-0.1-0.7-0.1-1.5-0.1-2.2c0-0.7,0-1.5,0.1-2.2C17.7,122.2,17.8,121.5,18,120.9
		L18,120.9z M22.2,122.2c-0.1,0.5-0.2,1-0.3,1.5c-0.1,0.5-0.1,1-0.1,1.5c0,0.5,0,1,0.1,1.5c0.1,0.5,0.1,1,0.3,1.4
		c0.2,0.8,0.5,1.5,1,2.1c0.5,0.6,1.1,1,1.9,1.3c0.3,0.1,0.6,0.2,1,0.2c0.3,0.1,0.7,0.1,1,0.1c0.3,0,0.7,0,1-0.1
		c0.3-0.1,0.7-0.1,1-0.2c0.8-0.3,1.5-0.7,1.9-1.3c0.5-0.6,0.8-1.3,1-2.1c0.1-0.5,0.2-0.9,0.3-1.4c0.1-0.5,0.1-1,0.1-1.5
		c0-0.5,0-1-0.1-1.5c-0.1-0.5-0.1-1-0.3-1.4c-0.2-0.8-0.5-1.5-1-2.1c-0.5-0.6-1.1-1.1-1.9-1.3c-0.3-0.1-0.6-0.2-1-0.2
		c-0.3-0.1-0.7-0.1-1-0.1c-0.3,0-0.7,0-1,0.1c-0.3,0.1-0.7,0.1-1,0.2c-0.8,0.3-1.4,0.7-1.9,1.3C22.7,120.7,22.4,121.4,22.2,122.2
		L22.2,122.2z"/>
	<path fill="#424242" d="M44.4,115.5l7.8,13.8l-0.2-13.8h4.1v19.2h-4.7l-8.2-14.5l0.2,14.5h-4.1v-19.2H44.4z"/>
	<path fill="#424242" d="M66.3,118.9c-0.9,0-1.6,0.2-2.2,0.5c-0.6,0.3-0.9,1-0.9,2c0,0.7,0.3,1.3,0.8,1.6c0.5,0.3,1.1,0.5,1.8,0.5
		l5.3,0c0.2,0,0.4,0,0.6,0c0.2,0,0.4,0,0.6,0c0.6,0,1.2,0.1,1.8,0.3c0.6,0.2,1.1,0.5,1.6,0.9c0.4,0.4,0.7,0.9,1,1.4
		c0.2,0.6,0.3,1.1,0.4,1.7c0,0.2,0,0.4,0,0.5c0,0.2,0,0.3,0,0.5c0,2.2-0.6,3.7-1.8,4.5c-1.2,0.8-2.8,1.2-4.9,1.2H59.8v-3.4h10.1
		c0.9,0,1.7-0.1,2.3-0.4c0.7-0.3,0.9-1,0.8-2.1c-0.1-0.8-0.4-1.4-0.9-1.5c-0.5-0.2-1.2-0.3-1.9-0.3l-4.8,0c-2,0-3.5-0.4-4.7-1.2
		c-1.2-0.8-1.7-2.3-1.7-4.4c0-2.2,0.7-3.7,1.9-4.6c1.2-0.8,2.8-1.2,4.9-1.2l10.5,0v3.4H66.3z"/>
	<path fill="#424242" d="M89,115.5C89,115.5,89,115.5,89,115.5c0.1,0,0.1,0,0.1,0c0.3,0,0.7,0,1,0c0.3,0,0.7,0,1,0.1
		c0.6,0,1.2,0.1,1.8,0.3c0.6,0.1,1.2,0.4,1.7,0.7c0.9,0.6,1.6,1.3,2,2.3c0.4,1,0.6,2,0.6,3c0,1-0.1,1.9-0.5,2.8
		c-0.3,0.9-0.9,1.6-1.7,2.2c-0.7,0.5-1.4,0.8-2.2,0.9c-0.8,0.2-1.6,0.2-2.4,0.3c-0.2,0-0.4,0-0.6,0s-0.4,0-0.6,0l-4.9,0v6.7h-4
		v-19.2H89z M88.9,118.9h-4.7v5.7h4.9c1,0,1.8-0.2,2.5-0.6c0.7-0.4,1.1-1.1,1.1-2.2c0-1.2-0.3-2-1.1-2.3
		C90.9,119.1,90,119,88.9,118.9L88.9,118.9z"/>
	<path fill="#424242" d="M104.6,120c-0.7,0.8-1.1,1.9-1.2,3.3l11.2,0v3.3h-11.2c0,0.7,0.1,1.3,0.2,1.9c0.2,0.6,0.5,1.2,0.9,1.7
		c0.4,0.5,0.9,0.8,1.5,0.9c0.6,0.1,1.1,0.2,1.7,0.2c0,0,0.1,0,0.1,0c0,0,0.1,0,0.1,0l6.6,0v3.3h-6.8c-1.1,0-2.1-0.1-3.1-0.3
		c-1-0.2-2-0.7-2.8-1.4c-1.1-0.9-1.8-1.9-2.2-3.2c-0.4-1.3-0.7-2.5-0.7-3.9c0-0.3,0-0.6,0-0.8c0-0.3,0-0.5,0-0.8
		c0.2-3,1-5.3,2.5-6.7c1.4-1.4,3.6-2.1,6.5-2.1l6.7,0v3.3h-6.6C106.5,118.9,105.4,119.3,104.6,120z"/>
	<path fill="#424242" d="M122.2,120.7c-0.6,1.3-0.9,2.7-0.9,4.4c0,0.3,0,0.6,0,0.9c0,0.3,0,0.6,0,0.9c0.1,0.6,0.2,1.2,0.3,1.8
		c0.2,0.6,0.5,1.1,0.9,1.6c0.4,0.5,0.9,0.8,1.5,0.9c0.6,0.1,1.1,0.2,1.7,0.2c0,0,0.1,0,0.1,0c0,0,0.1,0,0.1,0l6.6,0v3.3h-6.8
		c-1.1,0-2.1-0.1-3.1-0.3c-1-0.2-1.9-0.7-2.8-1.4c-1.1-0.9-1.8-1.9-2.2-3.2c-0.4-1.3-0.7-2.5-0.7-3.9c0-0.3,0-0.6,0-0.8
		c0-0.3,0-0.5,0-0.8c0.2-3,1-5.3,2.5-6.7c1.4-1.4,3.6-2.1,6.5-2.1l6.7,0v3.3H126C124,118.8,122.8,119.5,122.2,120.7z"/>
	<path fill="#424242" d="M133.6,118.9v-3.3h16.6v3.3h-6.2v15.8h-4.2v-15.8H133.6z"/>
	<path fill="#424242" d="M151.4,120.9c0.5-1.4,1.1-2.5,2-3.4c0.9-0.9,2.1-1.5,3.5-1.9c0.5-0.1,1.1-0.2,1.7-0.3
		c0.6-0.1,1.1-0.1,1.7-0.1c0.6,0,1.2,0,1.8,0.1c0.6,0.1,1.2,0.2,1.8,0.3c1.4,0.4,2.6,1,3.5,1.9c0.9,0.9,1.6,2,2,3.4
		c0.2,0.6,0.3,1.3,0.4,2c0.1,0.7,0.1,1.4,0.1,2.1c0,0.8,0,1.5-0.1,2.2c-0.1,0.7-0.2,1.4-0.4,2.1c-0.4,1.4-1.1,2.6-2,3.5
		c-0.9,0.9-2.1,1.5-3.6,1.8c-0.6,0.1-1.2,0.2-1.8,0.3c-0.6,0.1-1.2,0.1-1.8,0.1c-0.6,0-1.1,0-1.7-0.1c-0.6-0.1-1.1-0.2-1.6-0.3
		c-1.4-0.3-2.6-0.9-3.6-1.8c-0.9-0.9-1.6-2-2-3.5c-0.2-0.6-0.3-1.3-0.4-2c-0.1-0.7-0.1-1.5-0.1-2.2c0-0.7,0-1.5,0.1-2.2
		C151.1,122.2,151.2,121.5,151.4,120.9L151.4,120.9z M155.6,122.2c-0.1,0.5-0.2,1-0.3,1.5c-0.1,0.5-0.1,1-0.1,1.5c0,0.5,0,1,0.1,1.5
		c0.1,0.5,0.1,1,0.3,1.4c0.2,0.8,0.5,1.5,1,2.1c0.5,0.6,1.1,1,1.9,1.3c0.3,0.1,0.6,0.2,1,0.2c0.3,0.1,0.7,0.1,1,0.1
		c0.3,0,0.7,0,1-0.1c0.3-0.1,0.7-0.1,1-0.2c0.8-0.3,1.5-0.7,1.9-1.3c0.5-0.6,0.8-1.3,1-2.1c0.1-0.5,0.2-0.9,0.3-1.4
		c0.1-0.5,0.1-1,0.1-1.5c0-0.5,0-1-0.1-1.5c-0.1-0.5-0.1-1-0.3-1.4c-0.2-0.8-0.5-1.5-1-2.1c-0.5-0.6-1.1-1.1-1.9-1.3
		c-0.3-0.1-0.6-0.2-1-0.2c-0.3-0.1-0.7-0.1-1-0.1c-0.3,0-0.7,0-1,0.1c-0.3,0.1-0.7,0.1-1,0.2c-0.8,0.3-1.4,0.7-1.9,1.3
		C156.1,120.7,155.8,121.4,155.6,122.2L155.6,122.2z"/>
	<path fill="#424242" d="M182.6,115.5c0.2,0,0.4,0,0.6,0c0.2,0,0.4,0,0.6,0c0.7,0,1.4,0.2,2.2,0.3c0.7,0.2,1.3,0.6,1.9,1.1
		c0.5,0.5,0.8,1,1.1,1.6c0.2,0.6,0.4,1.3,0.4,1.9c0,0.1,0,0.3,0,0.4c0,0.1,0,0.3,0,0.4c0,1.3-0.3,2.5-0.9,3.5c-0.6,1-1.6,1.6-3,1.9
		l4.8,8h-4.5l-4.2-7.5h-4.7v7.5h-4v-19.2H182.6z M181.7,118.9h-4.9v4.8h4.9c0,0,0.1,0,0.1,0c0,0,0.1,0,0.1,0c0.9,0,1.6-0.1,2.3-0.4
		c0.7-0.3,1-0.9,1-2c0-1.1-0.4-1.8-1.1-2.1C183.4,119.1,182.6,119,181.7,118.9L181.7,118.9z"/>
</g>
</svg>
