<?xml version="1.0" encoding="utf-8"?>
<!-- Generator: Adobe Illustrator 18.1.0, SVG Export Plug-In . SVG Version: 6.00 Build 0)  -->
<svg version="1.1" id="Layer_1" xmlns="http://www.w3.org/2000/svg" xmlns:xlink="http://www.w3.org/1999/xlink" x="0px" y="0px"
	 viewBox="0 0 23.2 23.1" enable-background="new 0 0 23.2 23.1" xml:space="preserve">
<g>
	<circle fill="#1A469B" cx="11.6" cy="11.6" r="11.5"/>
	<g>
		<path fill="#FFFFFF" d="M17.3,10.4c0-2.1-1.5-4-3.6-4.7c-0.3-0.1-1,3.8-1,3.8V5.2c0-0.3-0.3-0.6-0.6-0.6h-0.9
			c-0.3,0-0.6,0.3-0.6,0.6v4.3c0,0-0.7-3.9-1.1-3.8c-2.2,0.7-3.6,2.5-3.6,4.7c0,0.5-1.2-0.1-1.3,1.8c0,0.2,0.1,0.4,0.4,0.4h13.3
			c0.2,0,0.4-0.2,0.4-0.4C18.4,10.2,17.3,10.9,17.3,10.4z"/>
		<g>
			<g>
				<path fill="#FFFFFF" d="M11.6,18.5c0.9,0,4.1,0,4.5-5h-9C7.5,18.5,10.6,18.5,11.6,18.5"/>
			</g>
		</g>
	</g>
</g>
</svg>
