<?xml version="1.0" encoding="utf-8"?>
<!-- Generator: Adobe Illustrator 18.1.0, SVG Export Plug-In . SVG Version: 6.00 Build 0)  -->
<svg version="1.1" id="Layer_1" xmlns="http://www.w3.org/2000/svg" xmlns:xlink="http://www.w3.org/1999/xlink" x="0px" y="0px"
	 viewBox="0 0 24 24" enable-background="new 0 0 24 24" xml:space="preserve">
<g>
	<circle fill="#1A469B" cx="12" cy="12" r="11.5"/>
	<g>
		<path fill="#FFFFFF" d="M17.7,10.8c0-2.1-1.5-4-3.6-4.7C13.7,6,13,10,13,10V5.6C13,5.3,12.7,5,12.4,5h-0.9C11.3,5,11,5.3,11,5.6
			V10c0,0-0.7-3.9-1.1-3.8c-2.2,0.7-3.6,2.5-3.6,4.7c0,0.5-1.2-0.1-1.3,1.8C5,12.8,5.2,13,5.4,13h13.3c0.2,0,0.4-0.2,0.4-0.4
			C18.9,10.7,17.7,11.3,17.7,10.8z"/>
		<g>
			<g>
				<path fill="#FFFFFF" d="M12,19c0.9,0,4.1,0,4.5-5h-9C7.9,19,11,19,12,19"/>
			</g>
		</g>
	</g>
</g>
</svg>
