<?xml version="1.0" encoding="utf-8"?>
<!-- Generator: Adobe Illustrator 18.1.0, SVG Export Plug-In . SVG Version: 6.00 Build 0)  -->
<svg version="1.1" id="Capa_1" xmlns="http://www.w3.org/2000/svg" xmlns:xlink="http://www.w3.org/1999/xlink" x="0px" y="0px"
	 viewBox="0 0 20 20" enable-background="new 0 0 20 20" xml:space="preserve">
<g>
	<path fill="#FFFFFF" d="M15.2,5.1v12H4.8v-12H15.2 M15.2,3.7H4.8C4,3.7,3.3,4.4,3.3,5.1v12c0,0.8,0.7,1.4,1.4,1.4h10.5
		c0.8,0,1.4-0.7,1.4-1.4v-12C16.7,4.3,16,3.7,15.2,3.7L15.2,3.7z"/>
</g>
<line fill="none" stroke="#FFFFFF" stroke-width="1.5" stroke-linecap="round" stroke-linejoin="round" stroke-miterlimit="10" x1="3" y1="4.3" x2="16.9" y2="4.3"/>
<line fill="none" stroke="#FFFFFF" stroke-width="1.5" stroke-linecap="round" stroke-linejoin="round" stroke-miterlimit="10" x1="7" y1="4.1" x2="7" y2="1.6"/>
<line fill="none" stroke="#FFFFFF" stroke-width="1.5" stroke-linecap="round" stroke-linejoin="round" stroke-miterlimit="10" x1="7" y1="1.6" x2="13" y2="1.6"/>
<line fill="none" stroke="#FFFFFF" stroke-width="1.5" stroke-linecap="round" stroke-linejoin="round" stroke-miterlimit="10" x1="13" y1="1.6" x2="13" y2="3.8"/>
<line fill="none" stroke="#FFFFFF" stroke-width="1.5" stroke-linecap="round" stroke-linejoin="round" stroke-miterlimit="10" x1="8.1" y1="7.9" x2="8.1" y2="15.1"/>
<line fill="none" stroke="#FFFFFF" stroke-width="1.5" stroke-linecap="round" stroke-linejoin="round" stroke-miterlimit="10" x1="11.9" y1="7.9" x2="11.9" y2="15.1"/>
</svg>
