<?xml version="1.0" encoding="utf-8"?>
<!-- Generator: Adobe Illustrator 18.1.0, SVG Export Plug-In . SVG Version: 6.00 Build 0)  -->
<svg version="1.1" id="Capa_1" xmlns="http://www.w3.org/2000/svg" xmlns:xlink="http://www.w3.org/1999/xlink" x="0px" y="0px"
	 viewBox="982 -1.3 19.6 21" enable-background="new 982 -1.3 19.6 21" xml:space="preserve">
<g>
	<path fill="#0489B8" d="M997.3,4.4v12.6h-11V4.4H997.3 M997.3,2.9h-11c-0.8,0-1.5,0.7-1.5,1.5v12.6c0,0.8,0.7,1.5,1.5,1.5h11
		c0.8,0,1.5-0.7,1.5-1.5V4.4C998.8,3.5,998.1,2.9,997.3,2.9L997.3,2.9z"/>
</g>
<line fill="none" stroke="#0489B8" stroke-width="1.5" stroke-linecap="round" stroke-linejoin="round" stroke-miterlimit="10" x1="984.5" y1="3.5" x2="999" y2="3.5"/>
<line fill="none" stroke="#0489B8" stroke-width="1.5" stroke-linecap="round" stroke-linejoin="round" stroke-miterlimit="10" x1="988.6" y1="3.3" x2="988.6" y2="0.7"/>
<line fill="none" stroke="#0489B8" stroke-width="1.5" stroke-linecap="round" stroke-linejoin="round" stroke-miterlimit="10" x1="988.6" y1="0.7" x2="994.9" y2="0.7"/>
<line fill="none" stroke="#0489B8" stroke-width="1.5" stroke-linecap="round" stroke-linejoin="round" stroke-miterlimit="10" x1="994.9" y1="0.7" x2="994.9" y2="3"/>
<line fill="none" stroke="#0489B8" stroke-width="1.5" stroke-linecap="round" stroke-linejoin="round" stroke-miterlimit="10" x1="989.8" y1="7.3" x2="989.8" y2="14.9"/>
<line fill="none" stroke="#0489B8" stroke-width="1.5" stroke-linecap="round" stroke-linejoin="round" stroke-miterlimit="10" x1="993.8" y1="7.3" x2="993.8" y2="14.9"/>
</svg>
