<?xml version="1.0" encoding="utf-8"?>
<!-- Generator: Adobe Illustrator 18.1.0, SVG Export Plug-In . SVG Version: 6.00 Build 0)  -->
<svg version="1.1" id="Layer_1" xmlns="http://www.w3.org/2000/svg" xmlns:xlink="http://www.w3.org/1999/xlink" x="0px" y="0px"
	 viewBox="0 0 20 20" enable-background="new 0 0 20 20" xml:space="preserve">
<g>
	
		<path fill="#FFFFFF" stroke="#FFFFFF" stroke-width="1.25" stroke-linecap="round" stroke-linejoin="round" stroke-miterlimit="10" d="
		M14.5,13.7v3.5c0,0.5-0.4,1-1,1H1.9c-0.5,0-1-0.4-1-1V2.8c0-0.5,0.4-0.9,1-0.9h11.8c0.5,0,1,0.4,1,1v0.6L14,4.2V2.9
		c0-0.3-0.1-0.4-0.4-0.4H1.9c-0.3,0-0.4,0.1-0.4,0.4v14.4c0,0.3,0.1,0.4,0.4,0.4h11.8c0.2,0,0.4-0.1,0.4-0.4v-2.9L14.5,13.7z"/>
	<g>
		<path fill="#FFFFFF" d="M13.4,12.2c-0.8-0.8-1.5-1.5-2.3-2.3c1.7-1.8,2.6-2.7,4.4-4.6c0.8,0.8,1.5,1.5,2.3,2.3
			C16.1,9.3,15.1,10.3,13.4,12.2z"/>
		<path fill="#FFFFFF" d="M18.9,6.4c-0.8-0.7-1.5-1.5-2.4-2.2c0.4-0.3,0.6-0.6,1-0.9c0.3-0.3,0.6-0.1,0.9,0c0.5,0.4,0.9,0.9,1.4,1.3
			C20,4.8,20,5.2,19.9,5.4C19.5,5.8,19.1,6.2,18.9,6.4z"/>
		<path fill="#FFFFFF" d="M12.4,13.2c-0.1,0-0.1,0-0.1,0.1c-0.9,0.4-1.7,0.6-2.6,1c-0.3,0.1-0.5,0-0.5-0.2V14c0.3-1,0.6-1.9,0.9-2.9
			c0,0,0,0,0-0.1C10.9,11.8,11.6,12.4,12.4,13.2z"/>
	</g>
</g>
</svg>
