<?xml version="1.0" encoding="utf-8"?>
<!-- Generator: Adobe Illustrator 18.1.0, SVG Export Plug-In . SVG Version: 6.00 Build 0)  -->
<svg version="1.1" id="Layer_1" xmlns="http://www.w3.org/2000/svg" xmlns:xlink="http://www.w3.org/1999/xlink" x="0px" y="0px"
	 viewBox="0 0 16 14.3" enable-background="new 0 0 16 14.3" xml:space="preserve">
<g>
	
		<path fill="#0489B8" stroke="#1091BE" stroke-width="1.25" stroke-linecap="round" stroke-linejoin="round" stroke-miterlimit="10" d="
		M11.6,10.1v2.8c0,0.4-0.3,0.8-0.8,0.8H1.5c-0.4,0-0.8-0.3-0.8-0.8V1.4C0.7,1,1,0.7,1.5,0.7h9.4c0.4,0,0.8,0.3,0.8,0.8v0.5l-0.5,0.5
		v-1c0-0.2-0.1-0.3-0.3-0.3H1.5c-0.2,0-0.3,0.1-0.3,0.3v11.5c0,0.2,0.1,0.3,0.3,0.3h9.4c0.2,0,0.3-0.1,0.3-0.3v-2.3L11.6,10.1z"/>
	<g>
		<path fill-rule="evenodd" clip-rule="evenodd" fill="#0489B8" d="M10.7,8.9c-0.6-0.6-1.2-1.2-1.8-1.8c1.4-1.4,2.1-2.2,3.5-3.7
			C13,4,13.6,4.6,14.2,5.2C12.9,6.6,12.1,7.4,10.7,8.9z"/>
		<path fill-rule="evenodd" clip-rule="evenodd" fill="#0489B8" d="M15.1,4.3c-0.6-0.6-1.2-1.2-1.9-1.8C13.5,2.3,13.7,2,14,1.8
			c0.2-0.2,0.5-0.1,0.7,0c0.4,0.3,0.7,0.7,1.1,1c0.2,0.2,0.2,0.5,0.1,0.7C15.6,3.8,15.3,4.1,15.1,4.3z"/>
		<path fill-rule="evenodd" clip-rule="evenodd" fill="#0489B8" d="M9.9,9.7c-0.1,0-0.1,0-0.1,0.1c-0.7,0.3-1.4,0.5-2.1,0.8
			c-0.2,0.1-0.4,0-0.4-0.2c0,0,0-0.1,0-0.1C7.5,9.5,7.8,8.8,8,8c0,0,0,0,0-0.1C8.7,8.6,9.3,9.1,9.9,9.7z"/>
	</g>
</g>
</svg>
