<?xml version="1.0" encoding="utf-8"?>
<!-- Generator: Adobe Illustrator 18.1.0, SVG Export Plug-In . SVG Version: 6.00 Build 0)  -->
<svg version="1.1" id="Layer_1" xmlns="http://www.w3.org/2000/svg" xmlns:xlink="http://www.w3.org/1999/xlink" x="0px" y="0px"
	 viewBox="0 0 24 24" enable-background="new 0 0 24 24" xml:space="preserve">
<path fill="#FFFFFF" d="M20.9,22.9H3.1c-1.1,0-2.1-0.9-2.1-2.1V8.4c0-1.1,0.9-2.1,2.1-2.1h17.9c1.1,0,2.1,0.9,2.1,2.1v12.4
	C23,21.9,22.1,22.9,20.9,22.9z"/>
<path fill="none" stroke="#434347" stroke-width="1.75" stroke-miterlimit="10" d="M4.7,1.5"/>
<path fill="none" stroke="#434347" stroke-width="2" stroke-miterlimit="10" d="M1.5,4.7"/>
<line fill="none" stroke="#434347" stroke-width="1.5" stroke-miterlimit="10" x1="19.6" y1="6.3" x2="4.4" y2="6.3"/>
<path fill="none" stroke="#434347" stroke-width="1.5" stroke-miterlimit="10" d="M1,6.3v14.1C1,21.9,2.5,23,4.4,23h15.2
	c1.9,0,3.4-1.1,3.4-2.6V6.3"/>
<path fill="#434347" d="M0.3,7.1h23.5c0-0.9,0,0,0-0.9V4.9c0-1.3-1.4-2.4-3.1-2.4h-0.8V1.8c0-0.9-0.9-1.6-1.9-1.6
	C16.9,0.3,16,1,16,1.8v0.7h-2V1.8c0-0.9-0.9-1.6-1.9-1.6S10.2,1,10.2,1.8v0.7h-2V1.8c0-0.9-0.9-1.6-1.9-1.6S4.4,1,4.4,1.8v0.7h-1
	c-1.7,0-3.1,1.1-3.1,2.4 M17.1,1.8c0-0.4,0.4-0.7,0.8-0.7c0.5,0,0.8,0.3,0.8,0.7v2.8c0,0.4-0.4,0.7-0.8,0.7c-0.5,0-0.8-0.3-0.8-0.7
	V1.8z M11.3,1.8c0-0.4,0.4-0.7,0.8-0.7S13,1.4,13,1.8v2.8c0,0.4-0.4,0.7-0.8,0.7S11.3,5,11.3,4.6V1.8z M5.4,1.8
	c0-0.4,0.4-0.7,0.8-0.7s0.8,0.3,0.8,0.7v2.8c0,0.4-0.4,0.7-0.8,0.7S5.4,5,5.4,4.6V1.8z M0.3,7.1h23.5"/>
<g>
	<g>
		<g>
			<path fill="#434347" d="M17.9,12.5l-3.6-0.3l-1.6-3.6c-0.1-0.2-0.3-0.3-0.5-0.3c-0.2,0-0.4,0.1-0.5,0.3L10,12.3l-3.6,0.3
				c-0.5,0-0.7,0.6-0.3,1l3,2.6l-1,3.6c-0.1,0.2,0,0.5,0.2,0.6c0.2,0.1,0.4,0.2,0.6,0l3.3-2.1l3.2,2.1c0.1,0.1,0.2,0.1,0.3,0.1
				c0.4,0,0.6-0.4,0.5-0.7l-1-3.6l3-2.6C18.6,13.2,18.4,12.6,17.9,12.5z M14.2,15.5C14,15.6,14,15.8,14,16l0.7,2.5l-2.3-1.5
				C12.3,17,12.2,17,12.1,17c-0.1,0-0.2,0.1-0.3,0.1l-2.3,1.5l0.7-2.5c0.1-0.2,0-0.4-0.2-0.6l-2.3-1.9l2.6-0.2
				c0.2,0,0.4-0.2,0.5-0.3l1.3-2.8l1.3,2.8c0.1,0.2,0.3,0.3,0.5,0.3l2.6,0.2L14.2,15.5z"/>
		</g>
	</g>
</g>
</svg>
