<?xml version="1.0" encoding="utf-8"?>
<!-- Generator: Adobe Illustrator 18.1.0, SVG Export Plug-In . SVG Version: 6.00 Build 0)  -->
<svg version="1.1" id="Layer_1" xmlns="http://www.w3.org/2000/svg" xmlns:xlink="http://www.w3.org/1999/xlink" x="0px" y="0px"
	 viewBox="0 0 27.6 24.6" enable-background="new 0 0 27.6 24.6" xml:space="preserve">
<g>
	<path fill="#FFFFFF" stroke="#0489B8" stroke-miterlimit="10" d="M24.7,20.1H6.9c-1.3,0-2.3-1-2.3-2.3V2.9c0-1.3,1-2.3,2.3-2.3
		h17.8c1.3,0,2.3,1,2.3,2.3v14.9C27,19,26,20.1,24.7,20.1z"/>
	<path fill="#FFFFFF" stroke="#0489B8" stroke-miterlimit="10" d="M22.7,22.1H4.9c-1.3,0-2.3-1-2.3-2.3V4.9c0-1.3,1-2.3,2.3-2.3
		h17.8c1.3,0,2.3,1,2.3,2.3v14.9C25,21,24,22.1,22.7,22.1z"/>
	<path fill="#FFFFFF" stroke="#0489B8" stroke-miterlimit="10" d="M20.7,24.1H2.9c-1.3,0-2.3-1-2.3-2.3V6.9c0-1.3,1-2.3,2.3-2.3
		h17.8c1.3,0,2.3,1,2.3,2.3v14.9C23,23,22,24.1,20.7,24.1z"/>
	<g>
		<path fill="#0489B8" d="M2.2,22.3h19.2c0.1,0,0.3-0.1,0.3-0.2c0.1-0.1,0.1-0.2,0.1-0.4c0-0.1-0.4-1.7-1.2-3.4
			c-1.1-2.4-2.3-3.5-3.6-3.5c-0.5,0-1,0.2-1.5,0.6c0,0,0,0,0,0c-0.3,0.2-0.6,0.5-0.9,0.9C13.8,17.1,13,18,12,18
			c-0.5,0-1.1-0.2-1.7-0.7c-0.6-0.4-1.2-0.6-1.9-0.6C6.7,16.7,5.1,18,4,19c-1.1,1.1-2,2.3-2.2,2.7c-0.1,0.1-0.1,0.3,0,0.4
			C1.9,22.2,2.1,22.3,2.2,22.3z"/>
		<circle fill="#0489B8" cx="16.7" cy="8.7" r="2.4"/>
	</g>
</g>
</svg>
