<?xml version="1.0" encoding="utf-8"?>
<!-- Generator: Adobe Illustrator 18.1.0, SVG Export Plug-In . SVG Version: 6.00 Build 0)  -->
<svg version="1.1" id="Layer_1" xmlns="http://www.w3.org/2000/svg" xmlns:xlink="http://www.w3.org/1999/xlink" x="0px" y="0px"
	 viewBox="499.9 136 29.2 25.9" enable-background="new 499.9 136 29.2 25.9" xml:space="preserve">
<g>
	<path fill="#FFFFFF" stroke="#0088B8" stroke-miterlimit="10" d="M525.4,156.6h-17.8c-1.3,0-2.3-1-2.3-2.3v-14.9
		c0-1.3,1-2.3,2.3-2.3h17.8c1.3,0,2.3,1,2.3,2.3v14.9C527.7,155.5,526.7,156.6,525.4,156.6z"/>
	<path fill="#FFFFFF" stroke="#0088B8" stroke-miterlimit="10" d="M523.4,158.6h-17.8c-1.3,0-2.3-1-2.3-2.3v-14.9
		c0-1.3,1-2.3,2.3-2.3h17.8c1.3,0,2.3,1,2.3,2.3v14.9C525.7,157.5,524.7,158.6,523.4,158.6z"/>
	<path fill="#FFFFFF" stroke="#0088B8" stroke-miterlimit="10" d="M521.4,160.6h-17.8c-1.3,0-2.3-1-2.3-2.3v-14.9
		c0-1.3,1-2.3,2.3-2.3h17.8c1.3,0,2.3,1,2.3,2.3v14.9C523.7,159.5,522.7,160.6,521.4,160.6z"/>
	<g>
		<path fill="#0088B8" d="M502.9,158.8h19.2c0.1,0,0.3-0.1,0.3-0.2c0.1-0.1,0.1-0.2,0.1-0.4c0-0.1-0.4-1.7-1.2-3.4
			c-1.1-2.4-2.3-3.5-3.6-3.5c-0.5,0-1,0.2-1.5,0.6c0,0,0,0,0,0c-0.3,0.2-0.6,0.5-0.9,0.9c-0.8,0.8-1.6,1.7-2.6,1.7
			c-0.5,0-1.1-0.2-1.7-0.7c-0.6-0.4-1.2-0.6-1.9-0.6c-1.7,0-3.3,1.2-4.4,2.3c-1.1,1.1-2,2.3-2.2,2.7c-0.1,0.1-0.1,0.3,0,0.4
			C502.6,158.7,502.7,158.8,502.9,158.8z"/>
		<circle fill="#0088B8" cx="517.3" cy="145.2" r="2.4"/>
	</g>
</g>
</svg>
