<?xml version="1.0" encoding="utf-8"?>
<!-- Generator: Adobe Illustrator 18.1.0, SVG Export Plug-In . SVG Version: 6.00 Build 0)  -->
<svg version="1.1" id="Layer_1" xmlns="http://www.w3.org/2000/svg" xmlns:xlink="http://www.w3.org/1999/xlink" x="0px" y="0px"
	 viewBox="0 0 24 24" enable-background="new 0 0 24 24" xml:space="preserve">
<path fill="#FFFFFF" d="M19.8,23H4.2C2.4,23,1,21.6,1,19.8V4.2C1,2.4,2.4,1,4.2,1h15.5C21.6,1,23,2.4,23,4.2v15.5
	C23,21.6,21.6,23,19.8,23z"/>
<path fill="none" stroke="#434347" stroke-width="1.75" stroke-miterlimit="10" d="M4.7,1.5"/>
<path fill="none" stroke="#434347" stroke-width="2" stroke-miterlimit="10" d="M1.5,4.7"/>
<path fill="none" stroke="#434347" stroke-width="1.5" stroke-miterlimit="10" d="M4.4,23h15.2c1.9,0,3.4-1.5,3.4-3.4V4.4
	C23,2.5,21.5,1,19.6,1H4.4C2.5,1,1,2.5,1,4.4v15.2C1,21.5,2.5,23,4.4,23z"/>
<g>
</g>
<g>
</g>
<g>
</g>
<g>
</g>
<g>
</g>
<g>
</g>
<g>
</g>
<g>
</g>
<g>
</g>
<g>
</g>
<g>
</g>
<g>
</g>
<g>
</g>
<g>
</g>
<g>
</g>
<path fill="#FFFFFF" d="M9.7,14.6c0.7,0.3,1.4,0.5,2.3,0.5c0.8,0,1.6-0.2,2.3-0.5"/>
<path fill="#434347" d="M10.8,11.1c0.8-0.7,1.2-1.7,1.2-2.9c0-2.2-1.8-4-4-4c-2.2,0-4,1.8-4,4c0,1.1,0.5,2.2,1.2,2.9
	c-0.8,0.7-1.7,2.2-1.7,5.4c0,0.3,0.3,0.6,0.6,0.6H8v-1.2H4.7c0.1-2.8,1.1-3.8,1.6-4c0.5,0.2,1.1,0.4,1.7,0.4c0.6,0,1.2-0.1,1.7-0.4
	c0.4,0.3,1.4,1.2,1.6,4H8v1.2h3.9c0.3,0,0.6-0.3,0.6-0.6C12.5,13.3,11.5,11.8,10.8,11.1z M5.2,8.3c0-1.5,1.2-2.8,2.8-2.8
	c1.5,0,2.8,1.2,2.8,2.8C10.8,9.8,9.5,11,8,11C6.5,11,5.2,9.8,5.2,8.3z"/>
<path fill="#434347" d="M18.8,11.1c0.8-0.7,1.2-1.7,1.2-2.9c0-2.2-1.8-4-4-4c-2.2,0-4,1.8-4,4c0,1.1,0.5,2.2,1.2,2.9
	c-0.8,0.7-1.7,2.2-1.7,5.4c0,0.3,0.3,0.6,0.6,0.6H16v-1.2h-3.3c0.1-2.8,1.1-3.8,1.6-4c0.5,0.2,1.1,0.4,1.7,0.4
	c0.6,0,1.2-0.1,1.7-0.4c0.4,0.3,1.4,1.2,1.6,4H16v1.2h3.9c0.3,0,0.6-0.3,0.6-0.6C20.5,13.3,19.5,11.8,18.8,11.1z M13.2,8.3
	c0-1.5,1.2-2.8,2.8-2.8c1.5,0,2.8,1.2,2.8,2.8c0,1.5-1.2,2.8-2.8,2.8C14.5,11,13.2,9.8,13.2,8.3z"/>
<path fill="#FFFFFF" d="M12,19v1.5h5c0.4,0,0.8-0.3,0.8-0.7c0-3.8-1.3-5.6-2.2-6.5c1-0.9,1.6-2.1,1.6-3.5c0-2.7-2.3-4.8-5.1-4.8
	c-2.8,0-5.1,2.2-5.1,4.8c0,1.4,0.6,2.6,1.6,3.5c-1,0.8-2.2,2.6-2.2,6.5c0,0.4,0.4,0.7,0.8,0.7h5L12,19"/>
<path fill="#434347" d="M15.1,13.2c0.8-0.8,1.4-1.9,1.4-3.2c0-2.4-2-4.4-4.4-4.4c-2.4,0-4.4,2-4.4,4.4c0,1.3,0.5,2.4,1.4,3.2
	c-0.9,0.8-1.9,2.4-1.9,6c0,0.4,0.3,0.7,0.7,0.7H12v-1.4H8.4c0.1-3.2,1.3-4.2,1.7-4.5c0.6,0.3,1.2,0.4,1.9,0.4c0.7,0,1.3-0.2,1.9-0.4
	c0.5,0.3,1.6,1.3,1.7,4.5H12v1.4h4.3c0.4,0,0.7-0.3,0.7-0.7C17,15.6,15.9,13.9,15.1,13.2z M8.9,10c0-1.7,1.4-3.1,3.1-3.1
	c1.7,0,3.1,1.4,3.1,3.1c0,1.7-1.4,3.1-3.1,3.1C10.3,13.1,8.9,11.7,8.9,10z"/>
</svg>
