<?xml version="1.0" encoding="utf-8"?>
<!-- Generator: Adobe Illustrator 18.1.0, SVG Export Plug-In . SVG Version: 6.00 Build 0)  -->
<svg version="1.1" id="Layer_1" xmlns="http://www.w3.org/2000/svg" xmlns:xlink="http://www.w3.org/1999/xlink" x="0px" y="0px"
	 viewBox="0 0 240 240" enable-background="new 0 0 240 240" xml:space="preserve">
<g>
	<g>
		<g id="Flag_1_">
			<g>
				<path fill="#0489B8" d="M217.4,22.2c-3.2-1.9-7.2-2.1-10.5-0.4c-8.5,4.4-16.8,8-32.9,8c-17.7,0-26-4.4-35.7-9.5
					c-10.6-5.6-22.7-11.9-45.7-11.9c-15.9,0-26.5,3-35.1,6.8c-1.6-3.9-5.4-6.8-9.9-6.8c-5.9,0-10.7,4.8-10.7,10.7v207.1
					c0,5.9,4.8,10.7,10.7,10.7s10.7-4.8,10.7-10.7v-87.7c9.1-4.8,17.5-8.8,34.3-8.8c17.7,0,26,4.4,35.7,9.5
					c10.6,5.6,22.7,11.9,45.7,11.9c20.9,0,32.6-5.1,42.7-10.4c3.6-1.8,5.8-5.5,5.8-9.5v-100C222.5,27.7,220.6,24.2,217.4,22.2z
					 M201.1,124.7c-6.8,3-14.6,5.2-27.1,5.2c-17.7,0-26-4.4-35.7-9.5c-10.6-5.6-22.7-11.9-45.7-11.9c-15.4,0-25.9,2.8-34.3,6.4V38.6
					c9.1-4.8,17.5-8.8,34.3-8.8c17.7,0,26,4.4,35.7,9.5C138.9,45,151,51.3,174,51.3c11.3,0,20-1.5,27.1-3.7V124.7z"/>
			</g>
		</g>
	</g>
	<g>
	</g>
	<g>
	</g>
	<g>
	</g>
	<g>
	</g>
	<g>
	</g>
	<g>
	</g>
	<g>
	</g>
	<g>
	</g>
	<g>
	</g>
	<g>
	</g>
	<g>
	</g>
	<g>
	</g>
	<g>
	</g>
	<g>
	</g>
	<g>
	</g>
</g>
</svg>
