<?xml version="1.0" encoding="utf-8"?>
<!-- Generator: Adobe Illustrator 18.1.0, SVG Export Plug-In . SVG Version: 6.00 Build 0)  -->
<svg version="1.1" id="Layer_1" xmlns="http://www.w3.org/2000/svg" xmlns:xlink="http://www.w3.org/1999/xlink" x="0px" y="0px"
	 viewBox="0 0 13.7 19.7" enable-background="new 0 0 13.7 19.7" xml:space="preserve">
<path opacity="0.3" fill="none" stroke="#424347" stroke-width="1.25" stroke-linecap="round" stroke-linejoin="round" stroke-miterlimit="10" d="
	M12,9.1V6c0-2.9-2.3-5.2-5.2-5.2C4,0.8,1.6,3.2,1.6,6v3.1C1.2,9.2,0.9,9.5,0.9,10v7.9c0,0.5,0.4,0.9,0.9,0.9h10.1
	c0.5,0,0.9-0.4,0.9-0.9V10C12.8,9.5,12.5,9.2,12,9.1z M6.8,2.9c1.7,0,3,1.4,3,3v3.1h-6V6C3.8,4.3,5.2,2.9,6.8,2.9z M7.5,14.2v2.3
	H6.1v-2.4c-0.5-0.3-0.8-0.8-0.8-1.3c0-0.8,0.7-1.5,1.5-1.5c0.8,0,1.5,0.7,1.5,1.5C8.4,13.5,8,14,7.5,14.2z"/>
</svg>
