<?xml version="1.0" encoding="utf-8"?>
<!-- Generator: Adobe Illustrator 18.1.0, SVG Export Plug-In . SVG Version: 6.00 Build 0)  -->
<svg version="1.1" id="Layer_1" xmlns="http://www.w3.org/2000/svg" xmlns:xlink="http://www.w3.org/1999/xlink" x="0px" y="0px"
	 viewBox="0 0 23.2 23.1" enable-background="new 0 0 23.2 23.1" xml:space="preserve">
<g>
	<circle fill="#904299" cx="11.6" cy="11.6" r="11.5"/>
	<g>
		<g>
			<path fill="#FFFFFF" stroke="#FFFFFF" stroke-width="0.25" stroke-miterlimit="10" d="M11.3,14.7C11.3,14.7,11.3,14.7,11.3,14.7
				l-0.4,0c-0.2,0-0.4-0.2-0.4-0.4c-0.1-0.3-0.1-0.5-0.1-0.7c0.1-1.4,0.8-2.2,1.5-2.9c0.6-0.7,1.2-1.3,1.2-2.2
				c0.1-1.8-0.8-2.1-1.5-2.1c-1.1,0-1.6,0.6-1.7,2L10,9c0,0.2-0.2,0.4-0.5,0.4l-0.4,0C8.9,9.4,8.7,9.2,8.7,9l0-0.6
				c0.1-2.1,1.2-3.2,3-3.2c1.1,0,2.9,0.6,2.7,3.4c-0.1,1.3-0.8,2.1-1.5,2.8c-0.7,0.7-1.2,1.3-1.3,2.3c0,0.1,0,0.2,0,0.3
				c0,0.1,0.1,0.1,0.1,0.2C11.8,14.6,11.6,14.7,11.3,14.7z"/>
		</g>
		<circle fill="#FFFFFF" stroke="#FFFFFF" stroke-width="0.25" stroke-miterlimit="10" cx="11.2" cy="17" r="0.9"/>
	</g>
</g>
</svg>
