<?xml version="1.0" encoding="utf-8"?>
<!-- Generator: Adobe Illustrator 18.1.0, SVG Export Plug-In . SVG Version: 6.00 Build 0)  -->
<svg version="1.1" id="Layer_1" xmlns="http://www.w3.org/2000/svg" xmlns:xlink="http://www.w3.org/1999/xlink" x="0px" y="0px"
	 viewBox="0 0 24 24" enable-background="new 0 0 24 24" xml:space="preserve">
<g>
	<circle fill="#904299" cx="12" cy="12" r="11.5"/>
	<g>
		<g>
			<path fill="#FFFFFF" stroke="#FFFFFF" stroke-width="0.25" stroke-miterlimit="10" d="M11.8,15.3C11.8,15.3,11.8,15.3,11.8,15.3
				l-0.4,0c-0.2,0-0.4-0.2-0.5-0.4c-0.1-0.3-0.1-0.5-0.1-0.7c0.1-1.4,0.9-2.3,1.6-3c0.7-0.7,1.2-1.3,1.3-2.3
				c0.1-1.9-0.8-2.2-1.5-2.2c-1.1,0-1.7,0.7-1.8,2.1l0,0.6c0,0.2-0.2,0.4-0.5,0.4l-0.4,0c-0.3,0-0.5-0.2-0.5-0.5l0-0.6
				c0.1-2.2,1.2-3.3,3.1-3.3c1.1,0,3,0.6,2.8,3.5c-0.1,1.4-0.9,2.2-1.6,2.9c-0.7,0.7-1.3,1.3-1.3,2.3c0,0.1,0,0.2,0,0.4
				c0,0.1,0.1,0.2,0.1,0.2C12.3,15.1,12.1,15.3,11.8,15.3z"/>
		</g>
		<circle fill="#FFFFFF" stroke="#FFFFFF" stroke-width="0.25" stroke-miterlimit="10" cx="11.7" cy="17.6" r="0.9"/>
	</g>
</g>
</svg>
