<?xml version="1.0" encoding="utf-8"?>
<!-- Generator: Adobe Illustrator 18.1.0, SVG Export Plug-In . SVG Version: 6.00 Build 0)  -->
<svg version="1.1" id="Layer_1" xmlns="http://www.w3.org/2000/svg" xmlns:xlink="http://www.w3.org/1999/xlink" x="0px" y="0px"
	 viewBox="0 0 14.2 12.1" enable-background="new 0 0 14.2 12.1" xml:space="preserve">
<g transform="translate(0,240)">
	<path fill="#0388B8" d="M12.6-236.9h-11c-0.8,0-1.5,0.7-1.5,1.5v4.5h3v3h8v-3h3v-4.5C14.1-236.3,13.4-236.9,12.6-236.9z
		 M10.1-228.9h-6v-4h6V-228.9z M11.6-234.7c-0.4,0-0.8-0.3-0.8-0.8c0-0.4,0.3-0.8,0.8-0.8c0.4,0,0.8,0.3,0.8,0.8
		C12.3-235,12-234.7,11.6-234.7z M11.1-239.9h-8v2h8V-239.9z"/>
</g>
</svg>
