<?xml version="1.0" encoding="utf-8"?>
<!-- Generator: Adobe Illustrator 18.1.0, SVG Export Plug-In . SVG Version: 6.00 Build 0)  -->
<svg version="1.1" id="Layer_1" xmlns="http://www.w3.org/2000/svg" xmlns:xlink="http://www.w3.org/1999/xlink" x="0px" y="0px"
	 viewBox="0 0 24 24" enable-background="new 0 0 24 24" xml:space="preserve">
<path fill="#FFFFFF" d="M19.8,23H4.2C2.4,23,1,21.6,1,19.8V4.2C1,2.4,2.4,1,4.2,1h15.5C21.6,1,23,2.4,23,4.2v15.5
	C23,21.6,21.6,23,19.8,23z"/>
<g>
	<path fill="#434347" d="M15.3,12.3c-0.5-0.3-1.2-0.6-2.6-0.9l0-4c0.8,0,1.2,0.3,1.6,0.9c0.2,0.3,0.3,0.7,0.4,1.1h1.6
		c0-0.9-0.4-1.7-1-2.2c-0.6-0.6-1.3-0.9-2.5-0.9l0-1.9l-1.3,0l0,1.9C9.8,6.2,9.5,6.4,8.8,7c-0.7,0.7-1,1.4-1,2.2
		c0,0.9,0.3,1.7,0.9,2.2c0.6,0.5,1.4,0.9,2.7,1.1l0,4.5c-1-0.1-1.5-0.4-1.9-1c-0.2-0.3-0.3-0.9-0.4-1.6H7.5c0,0.9,0.2,1.7,0.5,2.2
		c0.6,1,1.6,1.6,3.3,1.7v1.6h1.3v-1.6c1.1-0.1,1.7-0.3,2.3-0.7c1-0.6,1.6-1.6,1.6-3.1C16.5,13.5,16.1,12.8,15.3,12.3z M11.4,11.1
		c-0.7-0.1-1-0.3-1.4-0.6c-0.4-0.3-0.6-0.7-0.6-1.3c0-0.4,0.2-0.9,0.5-1.3c0.3-0.4,0.8-0.6,1.5-0.6L11.4,11.1z M14.6,16.1
		c-0.4,0.6-0.9,1-1.9,1v-4.2c0.8,0.2,1.1,0.3,1.4,0.5c0.6,0.4,0.8,0.9,0.8,1.6C14.9,15.4,14.8,15.8,14.6,16.1z"/>
</g>
<path fill="none" stroke="#434347" stroke-width="1.75" stroke-miterlimit="10" d="M4.7,1.5"/>
<path fill="none" stroke="#434347" stroke-width="2" stroke-miterlimit="10" d="M1.5,4.7"/>
<path fill="none" stroke="#434347" stroke-width="1.5" stroke-miterlimit="10" d="M4.4,23h15.2c1.9,0,3.4-1.5,3.4-3.4V4.4
	C23,2.5,21.5,1,19.6,1H4.4C2.5,1,1,2.5,1,4.4v15.2C1,21.5,2.5,23,4.4,23z"/>
</svg>
