<?xml version="1.0" encoding="utf-8"?>
<!-- Generator: Adobe Illustrator 18.1.0, SVG Export Plug-In . SVG Version: 6.00 Build 0)  -->
<svg version="1.1" id="Layer_1" xmlns="http://www.w3.org/2000/svg" xmlns:xlink="http://www.w3.org/1999/xlink" x="0px" y="0px"
	 viewBox="0 0 24 24" enable-background="new 0 0 24 24" xml:space="preserve">
<path fill="#FFFFFF" d="M19.8,23H4.2C2.4,23,1,21.6,1,19.8V4.2C1,2.4,2.4,1,4.2,1h15.5C21.6,1,23,2.4,23,4.2v15.5
	C23,21.6,21.6,23,19.8,23z"/>
<path fill="none" stroke="#434347" stroke-width="1.75" stroke-miterlimit="10" d="M4.7,1.5"/>
<path fill="none" stroke="#434347" stroke-width="2" stroke-miterlimit="10" d="M1.5,4.7"/>
<path fill="none" stroke="#434347" stroke-width="1.5" stroke-miterlimit="10" d="M4.4,23h15.2c1.9,0,3.4-1.5,3.4-3.4V4.4
	C23,2.5,21.5,1,19.6,1H4.4C2.5,1,1,2.5,1,4.4v15.2C1,21.5,2.5,23,4.4,23z"/>
<path fill="none" stroke="#434347" stroke-width="1.75" stroke-miterlimit="10" d="M6.7-0.5"/>
<path fill="none" stroke="#434347" stroke-width="2" stroke-miterlimit="10" d="M3.5,2.7"/>
<g>
</g>
<g>
</g>
<g>
</g>
<g>
</g>
<g>
</g>
<g>
</g>
<g>
</g>
<g>
</g>
<g>
</g>
<g>
</g>
<g>
</g>
<g>
</g>
<g>
</g>
<g>
</g>
<g>
</g>
<path fill="#434347" d="M6.2,4.1C5,4.1,4,5.1,4,6.4s1,2.3,2.2,2.3s2.3-1,2.3-2.3S7.4,4.1,6.2,4.1z M6.2,8C5.3,8,4.6,7.2,4.6,6.4
	c0-0.9,0.7-1.6,1.6-1.6c0.9,0,1.6,0.7,1.6,1.6C7.8,7.3,7.1,8,6.2,8z"/>
<rect x="10.6" y="5.3" fill="#434347" width="9.5" height="1.4"/>
<path fill="#434347" d="M6.2,9.7C5,9.7,4,10.8,4,12s1,2.3,2.2,2.3s2.3-1,2.3-2.3S7.4,9.7,6.2,9.7z M6.2,13.6c-0.9,0-1.6-0.7-1.6-1.6
	c0-0.9,0.7-1.6,1.6-1.6c0.9,0,1.6,0.7,1.6,1.6C7.8,12.9,7.1,13.6,6.2,13.6z"/>
<rect x="10.6" y="11.3" fill="#434347" width="9.5" height="1.4"/>
<path fill="#434347" d="M6.2,15.4c-1.2,0-2.2,1-2.2,2.3c0,1.2,1,2.3,2.2,2.3s2.3-1,2.3-2.3S7.4,15.4,6.2,15.4z M6.2,19.2
	c-0.9,0-1.6-0.7-1.6-1.6c0-0.9,0.7-1.6,1.6-1.6c0.9,0,1.6,0.7,1.6,1.6S7.1,19.2,6.2,19.2z"/>
<rect x="10.6" y="17.3" fill="#434347" width="9.5" height="1.4"/>
</svg>
