<?xml version="1.0" encoding="utf-8"?>
<!-- Generator: Adobe Illustrator 18.1.0, SVG Export Plug-In . SVG Version: 6.00 Build 0)  -->
<svg version="1.1" id="Layer_1" xmlns="http://www.w3.org/2000/svg" xmlns:xlink="http://www.w3.org/1999/xlink" x="0px" y="0px"
	 viewBox="0 0 24 24" enable-background="new 0 0 24 24" xml:space="preserve">
<path fill="#FFFFFF" d="M19.8,23H4.2C2.4,23,1,21.6,1,19.8V4.2C1,2.4,2.4,1,4.2,1h15.5C21.6,1,23,2.4,23,4.2v15.5
	C23,21.6,21.6,23,19.8,23z"/>
<path fill="none" stroke="#434347" stroke-width="1.75" stroke-miterlimit="10" d="M4.7,1.5"/>
<path fill="none" stroke="#434347" stroke-width="2" stroke-miterlimit="10" d="M1.5,4.7"/>
<path fill="none" stroke="#434347" stroke-width="1.5" stroke-miterlimit="10" d="M4.4,23h15.2c1.9,0,3.4-1.5,3.4-3.4V4.4
	C23,2.5,21.5,1,19.6,1H4.4C2.5,1,1,2.5,1,4.4v15.2C1,21.5,2.5,23,4.4,23z"/>
<path fill="none" stroke="#434347" stroke-width="1.75" stroke-miterlimit="10" d="M6.7-0.5"/>
<path fill="none" stroke="#434347" stroke-width="2" stroke-miterlimit="10" d="M3.5,2.7"/>
<g>
	<ellipse fill="#434347" cx="6.7" cy="12" rx="2" ry="1.9"/>
	<path fill="#434347" d="M18.1,10.9h-6.8c-0.6,0-1.1,0.5-1.1,1.1s0.5,1.1,1.1,1.1h6.8c0.6,0,1.1-0.5,1.1-1.1S18.7,10.9,18.1,10.9z"
		/>
	<ellipse fill="#434347" cx="6.7" cy="18.1" rx="2" ry="1.9"/>
	<path fill="#434347" d="M18.1,17h-6.8c-0.6,0-1.1,0.5-1.1,1.1c0,0.6,0.5,1.1,1.1,1.1h6.8c0.6,0,1.1-0.5,1.1-1.1
		C19.3,17.5,18.7,17,18.1,17z"/>
	<ellipse fill="#434347" cx="6.7" cy="5.9" rx="2" ry="1.9"/>
	<path fill="#434347" d="M18.1,4.8h-6.8c-0.6,0-1.1,0.5-1.1,1.1S10.7,7,11.3,7h6.8c0.6,0,1.1-0.5,1.1-1.1S18.7,4.8,18.1,4.8z"/>
</g>
</svg>
