<?xml version="1.0" encoding="utf-8"?>
<!-- Generator: Adobe Illustrator 18.1.0, SVG Export Plug-In . SVG Version: 6.00 Build 0)  -->
<svg version="1.1" id="Layer_1" xmlns="http://www.w3.org/2000/svg" xmlns:xlink="http://www.w3.org/1999/xlink" x="0px" y="0px"
	 viewBox="0 0 49.6 49.6" enable-background="new 0 0 49.6 49.6" xml:space="preserve">
<g>
	<g>
		<g>
			<path fill="#DDEDF1" d="M25.7,36.9c-1.6,0-2.6,1.5-2.6,3.6c0,2.1,1,3.6,2.6,3.6c1.6,0,2.6-1.5,2.6-3.6
				C28.3,38.5,27.4,36.9,25.7,36.9z"/>
			<path fill="#DDEDF1" d="M13.6,36.9c-0.5,0-0.9,0-1.1,0.1v7c0.2,0,0.5,0,0.8,0c2.2,0,3.6-1.2,3.6-3.7
				C16.9,38.1,15.6,36.9,13.6,36.9z"/>
			<path fill="#DDEDF1" d="M42.7,12.2c0-0.2-0.1-0.4-0.2-0.6L33.2,1c0,0,0,0,0,0C33.1,0.9,33,0.9,33,0.8c0,0,0,0-0.1,0
				c-0.1,0-0.1-0.1-0.2-0.1c0,0,0,0-0.1,0c-0.1,0-0.1,0-0.2,0H9.6c-1,0-1.9,0.8-1.9,1.9V47c0,1,0.8,1.9,1.9,1.9h31.2
				c1,0,1.9-0.8,1.9-1.9V12.3C42.7,12.3,42.7,12.3,42.7,12.2z M17.7,44.5c-1.1,0.9-2.8,1.4-4.9,1.4c-1.2,0-2.1-0.1-2.7-0.2V35.3
				c0.9-0.1,2-0.2,3.3-0.2c2,0,3.3,0.4,4.4,1.1c1.1,0.8,1.8,2.1,1.8,4C19.5,42.3,18.7,43.7,17.7,44.5z M25.6,46c-3.2,0-5-2.4-5-5.4
				c0-3.2,2-5.6,5.2-5.6c3.3,0,5.1,2.5,5.1,5.4C30.8,43.9,28.7,46,25.6,46z M37.9,44c0.7,0,1.5-0.2,2-0.3l0.4,1.9
				c-0.4,0.2-1.4,0.5-2.7,0.5c-3.7,0-5.6-2.3-5.6-5.3c0-3.6,2.6-5.7,5.8-5.7c1.2,0,2.2,0.3,2.6,0.5l-0.5,1.9c-0.5-0.2-1.2-0.4-2-0.4
				c-1.9,0-3.4,1.2-3.4,3.5C34.4,42.6,35.7,44,37.9,44z M9.6,32.8V2.6h21.9v9.7c0,0.5,0.4,0.9,0.9,0.9h8.4l0,19.6H9.6z"/>
			<path fill="#DDEDF1" d="M22.8,13.7h6.9c0.3,0,0.6-0.3,0.6-0.6s-0.3-0.6-0.6-0.6h-6.9c-0.3,0-0.6,0.3-0.6,0.6
				C22.2,13.4,22.5,13.7,22.8,13.7z"/>
			<path fill="#DDEDF1" d="M33.1,17.5H15.9c-0.3,0-0.6,0.3-0.6,0.6c0,0.3,0.3,0.6,0.6,0.6h17.1c0.3,0,0.6-0.3,0.6-0.6
				C33.7,17.8,33.4,17.5,33.1,17.5z"/>
			<path fill="#DDEDF1" d="M17.7,15l0.6-2.4c0.1-0.6,0.2-1.1,0.3-1.6h0c0.1,0.5,0.1,1,0.3,1.6l0.5,2.4h1l1.3-5h-0.9l-0.5,2.3
				c-0.1,0.6-0.3,1.2-0.3,1.7h0c-0.1-0.5-0.2-1.1-0.3-1.7L19.2,10h-1l-0.5,2.3c-0.1,0.6-0.3,1.2-0.4,1.8h0c-0.1-0.5-0.2-1.1-0.3-1.7
				L16.5,10h-1l1.2,5L17.7,15L17.7,15z"/>
			<path fill="#DDEDF1" d="M33.1,22.5H15.9c-0.3,0-0.6,0.3-0.6,0.6c0,0.3,0.3,0.6,0.6,0.6h17.1c0.3,0,0.6-0.3,0.6-0.6
				C33.7,22.7,33.4,22.5,33.1,22.5z"/>
			<path fill="#DDEDF1" d="M33.1,27.6H15.9c-0.3,0-0.6,0.3-0.6,0.6c0,0.3,0.3,0.6,0.6,0.6h17.1c0.3,0,0.6-0.3,0.6-0.6
				C33.7,27.8,33.4,27.6,33.1,27.6z"/>
		</g>
	</g>
	<g>
	</g>
	<g>
	</g>
	<g>
	</g>
	<g>
	</g>
	<g>
	</g>
	<g>
	</g>
	<g>
	</g>
	<g>
	</g>
	<g>
	</g>
	<g>
	</g>
	<g>
	</g>
	<g>
	</g>
	<g>
	</g>
	<g>
	</g>
	<g>
	</g>
</g>
</svg>
